<svg xmlns="http://www.w3.org/2000/svg" xmlns:xlink="http://www.w3.org/1999/xlink" version="1.1" x="0px" y="0px" viewBox="0 0 100 125" enable-background="new 0 0 100 100" xml:space="preserve"><path d="M94.8,38.577c-0.485-1.306-1.963-5.28-20.956-1.26c-0.84,0.179-1.373,0.999-1.197,1.838  c0.179,0.843,1.021,1.357,1.839,1.197c13.589-2.878,17.188-1.281,17.406-0.7c0.245,0.67-1.806,4.704-16.349,12.235  c-1.563,0.824-3.221,1.642-4.986,2.478c-5.531,2.63-11.596,5.171-18.026,7.552c-6.361,2.357-12.62,4.378-18.621,6.01  c-1.863,0.51-3.65,0.967-5.386,1.363c-15.919,3.751-20.108,2.027-20.359,1.357c-0.219-0.585,1.466-4.132,13.665-10.806  c0.751-0.411,1.026-1.354,0.614-2.104c-0.412-0.755-1.36-1.027-2.105-0.615C3.296,66.446,4.771,70.42,5.256,71.726  c0.742,2.006,3.335,3.008,7.742,3.008c3.957,0,9.373-0.809,16.225-2.423c1.555-0.352,3.193-0.778,4.877-1.233  c4.217,2.812,9.091,4.302,14.022,4.302c2.966,0,5.949-0.523,8.807-1.59c7.64-2.812,13.397-9.118,15.582-16.931  c1.554-0.745,3.068-1.484,4.468-2.221C90.207,47.786,96.205,42.385,94.8,38.577z M55.85,70.881  c-5.815,2.172-12.198,1.751-17.669-0.987c5.025-1.467,10.169-3.12,15.428-5.068c5.262-1.947,10.271-4.008,14.977-6.137  C66.219,64.292,61.66,68.739,55.85,70.881z"/><path d="M28.063,65.546c0.307,0.395,0.764,0.601,1.228,0.601c0.333,0,0.666-0.106,0.951-0.324c0.675-0.524,0.799-1.5,0.275-2.179  c-1.388-1.79-2.493-3.78-3.281-5.913c-2.065-5.576-1.832-11.626,0.651-17.03c2.484-5.403,6.929-9.518,12.508-11.58  c5.574-2.066,11.623-1.836,17.03,0.648c5.404,2.484,9.515,6.921,11.581,12.501c0.854,2.312,1.32,4.726,1.384,7.174  c0.021,0.854,0.752,1.56,1.591,1.511c0.857-0.023,1.533-0.735,1.512-1.59c-0.073-2.79-0.603-5.54-1.578-8.173  c-2.351-6.355-7.037-11.414-13.195-14.244c-6.152-2.826-13.044-3.086-19.402-0.736c-6.355,2.351-11.417,7.034-14.246,13.192  c-2.833,6.158-3.097,13.05-0.742,19.405C25.225,61.235,26.481,63.505,28.063,65.546z"/><text x="0" y="115" fill="#000000" font-size="5px" font-weight="bold" font-family="'Helvetica Neue', Helvetica, Arial-Unicode, Arial, Sans-serif">Created by Frederika Rewai</text><text x="0" y="120" fill="#000000" font-size="5px" font-weight="bold" font-family="'Helvetica Neue', Helvetica, Arial-Unicode, Arial, Sans-serif">from the Noun Project</text></svg>